<?xml version="1.0" standalone="no"?>
<!DOCTYPE svg PUBLIC "-//W3C//DTD SVG 20010904//EN"
 "http://www.w3.org/TR/2001/REC-SVG-20010904/DTD/svg10.dtd">
<svg version="1.0" xmlns="http://www.w3.org/2000/svg"
 width="474.000000pt" height="451.000000pt" viewBox="0 0 474.000000 451.000000"
 preserveAspectRatio="xMidYMid meet">

<g transform="translate(0.000000,451.000000) scale(0.100000,-0.100000)"
fill="#000000" stroke="none">
<path d="M3595 4269 c-122 -17 -263 -79 -376 -165 -84 -64 -143 -133 -398
-465 -129 -167 -261 -338 -293 -379 -56 -72 -125 -162 -423 -551 -140 -182
-372 -483 -505 -654 -385 -497 -407 -528 -435 -636 -19 -71 -19 -200 0 -274
25 -98 64 -165 140 -240 111 -111 223 -157 381 -157 200 0 331 81 509 317 33
44 128 168 210 275 83 107 180 233 216 280 36 47 171 222 300 390 448 581 449
582 449 608 0 18 -15 40 -52 74 -69 64 -111 83 -146 68 -17 -7 -113 -124 -257
-312 -126 -165 -266 -346 -310 -403 -44 -57 -126 -163 -182 -237 -610 -793
-561 -734 -630 -765 -133 -61 -290 -7 -349 122 -30 63 -32 161 -5 220 10 22
171 238 357 480 187 242 416 539 509 660 92 121 187 243 209 271 23 28 52 66
66 84 31 41 234 304 293 380 45 58 122 157 312 405 63 83 142 173 175 201 196
166 444 180 653 38 228 -156 299 -429 176 -679 -31 -63 -72 -120 -300 -415
-74 -96 -220 -285 -324 -420 -104 -135 -241 -312 -305 -395 -64 -82 -139 -179
-166 -215 -28 -36 -149 -193 -270 -349 -288 -373 -360 -467 -446 -581 -207
-273 -410 -398 -674 -417 -350 -24 -680 186 -812 517 -51 128 -66 216 -66 380
0 128 4 170 24 245 49 193 135 348 275 493 93 97 156 149 315 257 397 269 634
515 779 810 71 143 107 261 123 406 10 90 9 121 -4 204 -19 112 -39 148 -86
153 -23 2 -39 -4 -58 -23 -25 -25 -26 -30 -18 -78 17 -97 10 -255 -15 -347
-51 -193 -171 -387 -350 -570 -159 -161 -201 -193 -581 -442 -441 -290 -663
-674 -664 -1148 0 -209 33 -359 114 -523 241 -484 799 -721 1310 -556 87 29
221 99 295 154 111 84 207 190 408 450 338 439 468 606 536 695 74 97 275 356
367 475 35 44 160 206 279 360 118 154 266 345 328 424 257 331 304 432 314
671 4 105 2 139 -16 214 -33 139 -97 251 -206 362 -200 202 -442 290 -700 253z"/>
<path d="M1995 3745 c-17 -130 -82 -285 -172 -413 -26 -37 -90 -110 -143 -163
-138 -139 -272 -237 -510 -374 -370 -214 -619 -482 -715 -770 -22 -64 -28
-104 -31 -200 l-4 -120 23 95 c55 221 193 420 427 615 84 70 262 191 330 225
226 112 487 323 620 499 58 76 128 209 158 297 38 110 52 258 33 339 -7 26 -9
23 -16 -30z"/>
</g>
</svg>
